<?xml version="1.0" encoding="UTF-8" standalone="no"?><!DOCTYPE svg PUBLIC "-//W3C//DTD SVG 1.1//EN" "http://www.w3.org/Graphics/SVG/1.1/DTD/svg11.dtd"><svg width="100%" height="100%" viewBox="0 0 3417 3022" version="1.1" xmlns="http://www.w3.org/2000/svg" xmlns:xlink="http://www.w3.org/1999/xlink" xml:space="preserve" xmlns:serif="http://www.serif.com/" style="fill-rule:evenodd;clip-rule:evenodd;stroke-miterlimit:10;"><g><circle cx="1775.66" cy="1459.6" r="1459.6" style="fill:#f2f2f2;"/></g><g><g><path d="M830.901,2490.83c-94.02,144.184 -68.259,327.569 -68.259,327.569c0,0 178.199,-50.385 272.22,-194.57c94.02,-144.185 68.259,-327.57 68.259,-327.57c-0,0 -178.199,50.386 -272.22,194.571Z" style="fill:#3f3d56;fill-rule:nonzero;"/><path d="M762.142,2816.72c0,0 -2.289,-0.365 -6.501,-1.217c-3.36,-0.682 -7.987,-1.656 -13.636,-2.995c-50.5,-11.907 -184.762,-52.156 -272.541,-157.978c-109.865,-132.509 -105.238,-317.637 -105.238,-317.637c-0,-0 167.986,27.296 278.678,146.291c4.796,5.113 9.463,10.413 14,15.9c95.596,115.294 104.508,270.423 105.214,308.773c0.097,5.747 0.024,8.863 0.024,8.863Z" style="fill:#fd6378;fill-rule:nonzero;"/><path d="M694.383,2490.83c94.021,144.184 68.259,327.569 68.259,327.569c0,0 -178.199,-50.385 -272.219,-194.57c-94.021,-144.185 -68.259,-327.57 -68.259,-327.57c-0,0 178.199,50.386 272.219,194.571Z" style="fill:none;fill-rule:nonzero;stroke:#3f3d56;stroke-width:8.33px;"/><path d="M762.118,2807.86c-2.484,2.995 -4.675,5.552 -6.477,7.646c-3.993,4.553 -6.258,6.939 -6.258,6.939c-0,0 -2.751,-3.457 -7.378,-9.934c-25.396,-35.404 -107.088,-161.29 -100.782,-306.704c0.341,-7.621 0.901,-15.161 1.681,-22.62c4.796,5.113 9.463,10.413 14,15.9c95.596,115.294 104.508,270.423 105.214,308.773Z" style="fill-opacity:0.1;fill-rule:nonzero;"/><path d="M901.526,2516.32c-7.432,171.971 -135.089,306.124 -135.089,306.124c-0,-0 -115.609,-144.666 -108.177,-316.637c7.431,-171.971 135.089,-306.124 135.089,-306.124c-0,-0 115.608,144.666 108.177,316.637Z" style="fill:#fd6378;fill-rule:nonzero;"/><path d="M766.437,2817.58l28.065,-610.877" style="fill:none;fill-rule:nonzero;stroke:#3f3d56;stroke-width:8.33px;"/></g><ellipse cx="1708.33" cy="2882.1" rx="1708.33" ry="139.456" style="fill:#3f3d56;"/><g><path d="M2083.29,1209.15l-121.935,34.404l-63.848,99.705l-40.17,116.34l-0.87,123.807l48.914,83.542c-0,-0 196.671,148.3 373.673,-18.983c177.002,-167.283 -195.764,-438.815 -195.764,-438.815Z" style="fill:#ffb9b9;stroke:#000;stroke-width:4.17px;stroke-linecap:round;stroke-linejoin:round;stroke-miterlimit:1.5;"/><path d="M2318.95,1884.54c-0,-0 -466.93,-0 -466.93,-0c-5.5,-5.076 -10.211,-10.114 -14.22,-15.101l-0.309,-0.13c-56.274,-23.847 -26.404,-65.214 -21.643,-87.36c4.76,-22.145 -26.596,-53.5 -33.012,-106.484c-6.416,-52.983 28.125,-111.498 28.125,-111.498l-0.099,-0.373c-16.764,-63.495 5.836,-119.038 19.916,-145.317c0.13,-8.953 0.309,-18.819 0.587,-29.808c0.072,-2.862 0.205,-5.723 0.397,-8.577c-9.22,20.916 -20.763,42.874 -17.432,32.796c4.724,-14.292 23.85,-72.409 23.85,-72.409l0,0c21.465,-83.772 91.067,-159.886 179.105,-190.19c27.813,-9.574 51.134,-13.078 70.394,-13.062l0.424,0.001c52.929,0.19 74.946,27.006 74.946,27.006l0.013,0.415c61.267,7.068 109.557,50.149 141.686,102.036l0.229,0.37c4.583,7.425 8.838,15.034 12.753,22.745c13.986,26.728 35.012,72.8 40.812,117.59l0.003,0.022c0.248,1.921 0.468,3.84 0.659,5.754c1.448,12.737 4.916,43.909 6.833,66.739c1.597,19.016 4.244,42.616 5.272,59.291c3.938,9.411 7.03,22.631 7.659,41.169c9.368,15.108 30.072,66.977 13.506,104.113c6.015,27.089 -0.881,37.537 -6.39,48.978c-1.129,2.345 -2.238,4.612 -3.319,6.851c2.333,8.692 5.955,16.835 7.355,21.56c4.322,14.586 19.941,48.896 -7.983,75.236c2.196,13.061 1.16,24.871 -8.698,31.807c-18.751,13.192 -33.507,4.981 -39.836,-0.093c-3.979,5.229 -8.821,10.54 -14.653,15.923Zm-500.918,-76.147c-7.453,12.936 -7.331,22.778 -4.315,30.01c3.016,7.231 8.926,11.852 13.047,14.344c-8.183,-15.647 -10.108,-30.592 -8.732,-44.354Zm559.668,-57.218c3.986,9.666 7.808,20.993 10.493,33.495c5.556,25.873 -2.266,36.709 -8.513,41.14c-4.557,-17.252 -11.872,-34.914 -10.227,-45.387c1.895,-12.058 4.787,-21.017 8.247,-29.248Zm-277.097,-64.7c-0.209,2.746 -37.515,3.642 -37.169,0.91c1.141,-8.997 -2.914,-27.055 -30.412,-36.305c-27.499,-9.251 -57.201,-18.447 -74.942,-24.783c-17.384,-6.208 -69.387,-32.617 -66.649,-118.469c14.089,-15.062 22.138,-35.378 45.92,-58.805c26.559,-26.164 9.514,-50.741 65.012,-129.628c28.914,-41.1 54.799,-54.637 72.965,-58.175c9.807,0.438 18.752,1.115 26.869,1.945c19.512,7.216 45.766,19.468 64.3,37.89c21.522,21.392 43.407,56.421 56.687,87.756c-0.999,38.614 3.771,109.52 48.68,138.328c-4.192,72.255 -50.283,95.49 -66.447,101.263c-17.741,6.336 -47.443,15.532 -74.941,24.782c-27.498,9.251 -28.679,17.635 -29.873,33.291Zm-301.873,-75.379c-1.645,3.147 -3.025,7.373 -3.964,12.982c-5.589,33.39 -13.086,50.994 11.852,101.629c14.316,29.069 18.162,45.327 18.841,53.901c1.81,-4.545 3.785,-8.86 5.75,-12.915c0.276,-0.571 0.536,-1.143 0.779,-1.718c-24.115,-32.897 -26.01,-64.785 -24.52,-82.635c-5.237,-12.463 -14.016,-34.169 -8.738,-71.244Zm14.891,84.752c-0.561,9.924 3.006,22.766 7.475,34.576c4.468,11.81 9.837,22.589 12.877,28.388c5.213,-22.911 -11.849,-47.845 -20.352,-62.964Zm565.189,-97.146c-0.481,10.307 -1.616,21.895 -3.573,34.918c2.777,7.648 5.745,15.482 8.823,23.575c1.601,4.21 2.992,8.153 4.194,11.854c1.489,-12.867 3.485,-45.066 -9.444,-70.347Zm-5.277,-10.823c-8.157,-17.822 -12.385,-32.749 -17.033,-46.945c-1.254,27.994 5.367,54.342 15.291,82.988c1.05,-8.506 2.177,-21.52 1.742,-36.043Zm-543.567,-117.52c-6.456,9.276 -14.618,25.695 -15.617,50.267c-0.084,2.079 -0.169,3.93 -0.254,5.573c0.511,8.456 1.613,15.306 2.648,20.224c9.722,-30.94 12.311,-48.806 13.223,-76.064Zm537.67,61.249c-1.392,-14.123 -3.496,-30.452 -7.19,-40.519c-0.047,4.963 -0.193,9.68 -0.43,14.108l0,0c0,0 1.306,8.783 3.42,20.376c1.402,1.699 2.82,3.695 4.2,6.035Zm-130.969,-91.987l0,0.001c0.221,0.966 0.476,1.937 0.765,2.913c2.971,10.861 14.584,49.342 34.67,68.639c0.101,3.901 0.089,7.681 -0.03,11.345c-33.316,-26.682 -41.244,-78.72 -42.245,-116.165c3.323,10.091 5.418,19.351 5.915,27.061c0.132,2.038 0.446,4.108 0.925,6.206Zm17.075,32.229c5.421,14.009 13.874,25.696 19.464,32.504c2.19,-0.233 5.958,-1.231 4.737,-5.401c-8.521,-8.553 -17.055,-17.761 -24.201,-27.103Zm-341.682,-17.177c-11.312,19.312 -22.666,35.084 -25.393,39.72c-3.015,5.125 -0.383,6.942 2.08,7.581c7.852,-9.493 14.238,-20.78 23.742,-33.407c-0.578,-4.164 -0.568,-9.645 -0.429,-13.894Zm-81.551,-14.404c-6.519,14.851 -10.685,28.837 -13.225,41.594c2.884,-8.676 7.046,-18.137 13.039,-26.925c0.071,-4.579 0.128,-9.444 0.186,-14.669Zm194.152,-156.304c-25.993,15.715 -26.082,21.153 -40.733,36.794c-16.14,17.231 -38.728,79.411 -50.745,106.722c-6.652,15.119 -8.468,22.818 -8.762,26.679c2.084,-2.278 4.306,-4.59 6.685,-6.934c26.56,-26.164 9.514,-50.741 65.012,-129.628c9.851,-14.001 19.437,-25.005 28.543,-33.633Zm-24.348,-1.164c-40.231,31.167 -66.513,88.098 -73.143,121.897c-1.437,7.323 -3.244,14.654 -5.28,21.825c17.336,-28.372 19.772,-47.065 48.607,-97.828c11.716,-20.624 21.764,-35.416 29.816,-45.894Zm43.395,-20.547c-10.972,2.098 -21.328,6.308 -30.998,12.067c-6.545,10.776 -11.641,21.381 2.376,9.1c9.957,-8.724 20.143,-15.841 28.622,-21.167Z" style="fill:#2f2e41;"/><path d="M1995.79,1600.57c-0,0 22.579,73.384 -146.767,158.057c-169.347,84.673 16.934,174.991 16.934,174.991l197.571,45.159c0,0 203.216,-28.224 225.795,-62.094c22.58,-33.869 62.094,-146.766 50.804,-163.701c-8.447,-12.057 -17.888,-23.387 -28.224,-33.87c-10.337,-10.482 -135.477,-22.579 -129.832,-84.673c5.644,-62.093 -186.281,-33.869 -186.281,-33.869Z" style="fill:#ffb9b9;fill-rule:nonzero;"/><path d="M1995.79,1600.57c-0,0 22.579,73.384 -146.767,158.057c-169.347,84.673 16.934,174.991 16.934,174.991l197.571,45.159c0,0 203.216,-28.224 225.795,-62.094c22.58,-33.869 62.094,-146.766 50.804,-163.701c-8.447,-12.057 -17.888,-23.387 -28.224,-33.87c-10.337,-10.482 -135.477,-22.579 -129.832,-84.673c5.644,-62.093 -186.281,-33.869 -186.281,-33.869Z" style="fill-opacity:0.1;fill-rule:nonzero;"/><path d="M2133.06,1652.31l-2.584,0.867c-50.409,11.433 -85.762,1.817 -95.037,-1.246c-0.783,-0.294 -1.59,-0.58 -2.417,-0.858l-0.168,-0.086c-0.906,-0.454 -1.883,-0.769 -2.924,-0.951c-26.612,-8.898 -54.772,-17.647 -71.85,-23.746c-17.384,-6.208 -69.387,-32.617 -66.649,-118.469c14.089,-15.062 22.138,-35.378 45.92,-58.805c26.559,-26.164 9.514,-50.741 65.012,-129.628c28.914,-41.1 54.799,-54.637 72.965,-58.175c9.807,0.438 18.752,1.115 26.869,1.945c19.512,7.216 45.766,19.468 64.3,37.89c21.522,21.392 43.407,56.421 56.687,87.756c-0.999,38.614 3.771,109.52 48.68,138.328c-4.192,72.255 -50.283,95.49 -66.447,101.263c-17.187,6.138 -45.601,14.961 -72.357,23.915Zm103.607,-212.696l0.765,2.914c2.971,10.861 14.584,49.342 34.67,68.639c0.101,3.901 0.089,7.681 -0.03,11.345c-33.316,-26.682 -41.244,-78.72 -42.245,-116.165c3.323,10.091 5.418,19.351 5.915,27.061c0.132,2.038 0.446,4.108 0.925,6.206Zm17.075,32.229c5.421,14.009 13.874,25.696 19.464,32.504c2.19,-0.233 5.958,-1.231 4.737,-5.401c-8.521,-8.553 -17.055,-17.761 -24.201,-27.103Zm-341.682,-17.177c-11.312,19.312 -22.666,35.084 -25.393,39.72c-3.015,5.125 -0.383,6.942 2.08,7.581c7.852,-9.493 14.238,-20.78 23.742,-33.407c-0.578,-4.164 -0.568,-9.645 -0.429,-13.894Zm112.601,-170.708c-25.993,15.715 -26.082,21.153 -40.733,36.794c-16.14,17.231 -38.728,79.411 -50.745,106.722c-6.652,15.119 -8.468,22.818 -8.762,26.679c2.084,-2.278 4.306,-4.59 6.685,-6.934c26.56,-26.164 9.514,-50.741 65.012,-129.628c9.851,-14.001 19.437,-25.005 28.543,-33.633Zm-24.348,-1.164c-40.231,31.167 -66.513,88.098 -73.143,121.897c-1.437,7.323 -3.244,14.654 -5.28,21.825c17.336,-28.372 19.772,-47.065 48.607,-97.828c11.716,-20.624 21.764,-35.416 29.816,-45.894Zm43.395,-20.547c-10.972,2.098 -21.328,6.308 -30.998,12.067c-6.545,10.776 -11.641,21.381 2.376,9.1c9.957,-8.724 20.143,-15.841 28.622,-21.167Z" style="fill:#ffb9b9;"/><path d="M2086.11,1916.68c-0,0 -217.544,-15.909 -221.67,-166.011c0,-0 -77.509,-8.98 -100.089,13.6c-22.579,22.579 -95.962,39.514 -95.962,95.963c-0,56.448 124.187,225.795 124.187,225.795c0,-0 67.739,225.795 39.514,265.309c-28.224,39.514 -33.869,141.122 -33.869,141.122c-0,0 282.244,-22.579 327.403,0c45.159,22.58 225.795,22.58 237.085,0c11.29,-22.579 -11.29,-304.823 -11.29,-304.823c-0,-0.001 50.804,-67.739 39.514,-146.767l135.477,-158.057c0,0 -50.804,-152.412 -129.832,-152.412c-0,0 -107.253,-28.224 -110.075,-14.112c-2.822,14.112 53.626,172.169 -200.393,200.393Z" style="fill:#fd6378;fill-rule:nonzero;"/><path d="M1578.07,2413.43c0,-0 50.804,79.028 180.637,95.963c129.832,16.934 152.411,-28.225 141.122,-39.514c-11.29,-11.29 -146.767,-62.094 -146.767,-62.094l-79.029,-62.094l-95.963,67.739Z" style="fill:#ffb9b9;fill-rule:nonzero;"/><path d="M2503.83,2345.69l-146.767,84.673c-0,0.001 -191.926,-11.289 -118.543,45.16c73.384,56.448 208.861,33.869 208.861,33.869l129.832,-62.094l-73.383,-101.608Z" style="fill:#ffb9b9;fill-rule:nonzero;"/><path d="M1770,2492.46c0,0 -135.477,333.048 28.225,383.852c163.701,50.804 615.292,39.514 716.899,-28.224c101.608,-67.739 129.833,-158.057 112.898,-186.281c-16.935,-28.225 -129.832,-107.253 -208.861,-112.898c-79.028,-5.645 -649.161,-56.449 -649.161,-56.449Z" style="fill:#2f2e41;fill-rule:nonzero;"/><path d="M1770,2492.46c0,0 -135.477,333.048 28.225,383.852c163.701,50.804 615.292,39.514 716.899,-28.224c101.608,-67.739 129.833,-158.057 112.898,-186.281c-16.935,-28.225 -129.832,-107.253 -208.861,-112.898c-79.028,-5.645 -649.161,-56.449 -649.161,-56.449Z" style="fill-opacity:0.05;fill-rule:nonzero;"/><path d="M2409.49,2513.15c0,0 478.195,-173.103 472.551,35.758c-5.645,208.861 -304.824,265.309 -304.824,265.309l-90.318,11.29l-496.749,16.935c-0,-0 16.934,-90.318 -22.58,-101.608c0,-0 129.833,-33.869 135.477,-39.514c5.645,-5.645 327.403,-118.543 349.983,-124.188c22.579,-5.645 90.318,-50.804 141.122,-45.159c-0,0 56.449,-45.159 118.542,-33.869l-174.991,11.29l-128.213,3.756Z" style="fill:#2f2e41;fill-rule:nonzero;"/><path d="M2409.49,2513.15c0,0 478.195,-173.103 472.551,35.758c-5.645,208.861 -304.824,265.309 -304.824,265.309l-90.318,11.29l-496.749,16.935c-0,-0 16.934,-90.318 -22.58,-101.608c0,-0 129.833,-33.869 135.477,-39.514c5.645,-5.645 327.403,-118.543 349.983,-124.188c22.579,-5.645 90.318,-50.804 141.122,-45.159c-0,0 56.449,-45.159 118.542,-33.869l-174.991,11.29l-128.213,3.756Z" style="fill-opacity:0.1;fill-rule:nonzero;"/><path d="M2325,2541.19l60.288,137.554l366.916,-129.834l28.225,-73.383l-95.962,-16.933l-192.925,33.866l-83.675,22.584l-82.867,26.145Z" style="fill:#2f2e41;fill-rule:nonzero;"/><path d="M2325,2541.19l60.288,137.554l366.916,-129.834l28.225,-73.383l-95.962,-16.933l-192.925,33.866l-83.675,22.584l-82.867,26.145Z" style="fill-opacity:0.1;fill-rule:nonzero;"/><path d="M1544.2,2706.97c0,-0 107.253,135.477 231.44,169.346c124.187,33.869 191.926,-11.29 191.926,-11.29l-39.514,-158.056l-16.935,-101.608l-73.383,-50.804l-146.767,-67.739l-174.991,-56.448c-0,-0 -73.383,-11.29 -73.383,-0c-0,11.289 67.738,180.636 67.738,180.636l33.869,95.963Z" style="fill:#2f2e41;fill-rule:nonzero;"/><path d="M1674.03,2780.35c0,0 22.58,163.702 50.804,174.991c28.225,11.29 112.898,-11.289 135.477,-22.579c22.58,-11.29 99.33,-63.378 99.33,-63.378c0,0 -268.676,-100.324 -285.611,-89.034Z" style="fill:#f2f2f2;fill-rule:nonzero;"/><path d="M2187.72,2797.28l107.254,16.934l-11.292,129.833l-149.596,-36.338l53.634,-110.429Z" style="fill:#ffb9b9;fill-rule:nonzero;"/><path d="M2254.92,2833.42c0,0 -50.265,59.831 0.539,93.7l33.869,28.224c0,0 112.898,22.58 124.188,33.87c11.29,11.289 56.449,-16.935 56.449,-16.935c-0,-0 5.644,-169.346 -0,-180.636c-5.645,-11.29 -73.384,-22.58 -79.029,-11.29c-5.645,11.29 -73.383,28.224 -112.897,16.935l-23.119,36.132Z" style="fill:#f2f2f2;fill-rule:nonzero;"/><path d="M1803.87,2531.97c-0,0 -395.142,-231.44 -457.236,-146.767c-62.094,84.673 -129.832,203.216 50.804,293.534c180.636,90.318 745.124,276.599 745.124,276.599c0,0 84.673,-129.832 84.673,-163.701c0,-0 -299.178,-135.477 -349.982,-146.767c-50.804,-11.29 -254.02,-141.122 -282.244,-152.412c-28.225,-11.29 -67.739,-45.159 -67.739,-45.159l276.6,84.673Z" style="fill:#2f2e41;fill-rule:nonzero;"/><path d="M1690.97,1832.01l-22.58,16.935c0,-0 -50.803,129.832 -56.448,203.216c-5.645,73.383 -73.384,299.178 -67.739,327.403c5.645,28.224 11.29,50.803 45.159,79.028c0,-0 45.159,-101.608 124.188,-84.673l95.963,-349.983l-118.543,-191.926Z" style="fill:#fd6378;fill-rule:nonzero;"/><path d="M2481.25,1832.01l45.159,50.804c0,0 28.225,67.739 28.225,84.673c-0,16.935 56.448,265.31 62.093,276.599c5.645,11.29 28.225,152.412 0,186.282c-28.224,33.869 -79.028,56.448 -79.028,56.448c-0,0 33.869,-118.542 -73.383,-124.187l11.289,-45.159l-101.608,-338.693l107.253,-146.767Z" style="fill:#fd6378;fill-rule:nonzero;"/></g><g><path d="M1702.26,2220.65l-0,297.337c-0,38.816 31.615,70.903 70.426,71.477l621.824,9.213c38.574,0.571 71.009,-30.181 72.492,-68.731l11.437,-297.371c0.036,-0.916 0.053,-1.832 0.053,-2.748c0,-38.824 -31.629,-70.915 -70.449,-71.478l-633.262,-9.177c-0.345,-0.005 -0.69,-0.008 -1.036,-0.008c-39.216,0 -71.485,32.27 -71.485,71.486Z" style="fill:#3f3d56;fill-rule:nonzero;"/><circle cx="2083.29" cy="2376.74" r="45.159" style="fill:#f2f2f2;"/></g><g><path d="M3312.46,2367.59l0,515.696c0,8.86 -4.767,10.125 -12.515,14.422c-26.143,14.5 -90.584,40.335 -167.952,-0.554c-7.942,-4.198 -12.831,-5.616 -12.831,-14.599l-0,-511.66c-0,-0 98.301,39.651 193.298,-3.305Z" style="fill:#2f2e41;fill-rule:nonzero;"/><ellipse cx="3215.81" cy="2367.24" rx="96.649" ry="20.525" style="fill:#3f3d56;stroke:#fd6378;stroke-width:4.17px;"/></g></g></svg>