<svg width="100%" height="100%" viewBox="0 0 200 200" version="1.1" xmlns="http://www.w3.org/2000/svg" xmlns:xlink="http://www.w3.org/1999/xlink" xml:space="preserve" xmlns:serif="http://www.serif.com/" style="fill-rule:evenodd;clip-rule:evenodd;stroke-linejoin:round;stroke-miterlimit:2;" fill="#2D1862">
    <path d="M107.5,143.75L91.875,143.75C91.25,143.75 90,142.5 90,141.25C87.5,134.375 85.625,127.5 83.75,121.25C83.125,119.375 81.875,118.75 80,118.75L56.875,118.75C55,118.75 54.375,119.375 53.75,121.25C51.875,128.125 49.375,135 47.5,141.875C46.875,143.75 46.25,144.375 43.75,144.375L30,144.375C30.625,142.5 30.625,141.25 31.25,140C40,113.125 48.75,85.625 57.5,58.75C58.125,56.25 59.375,55.625 61.875,55.625L76.875,55.625C78.75,55.625 79.375,56.25 80,58.125C89.375,86.875 98.125,115 107.5,143.125L107.5,143.75ZM79.375,106.25L68.125,68.75L56.875,106.25L79.375,106.25ZM126.875,116.25C126.875,122.5 130,128.125 135.625,130.625C143.75,134.375 151.875,133.125 160,131.25C161.25,131.25 162.5,130.625 164.375,130L166.25,139.375C166.25,140 165.625,140.625 165,141.25C152.5,145 140,146.875 128.125,141.25C118.75,136.875 113.75,129.375 111.875,119.375C110,106.25 112.5,95 121.875,85.625C130.625,77.5 145.625,75.625 155.625,81.25C163.75,85.625 167.5,93.125 169.375,101.875C170,105.625 170,108.75 170,112.5C170,115 168.75,115.625 166.25,115.625L130.625,115.625C129.375,116.25 128.125,116.25 126.875,116.25ZM154.375,105C154.375,99.375 153.125,94.375 147.5,91.25C142.5,88.75 137.5,88.75 133.125,91.875C128.75,95 126.875,99.375 126.25,104.375C126.25,105 154.375,105 154.375,105Z" style="fill-rule:nonzero;"/>
</svg>
