<svg width="100%" height="100%" viewBox="0 0 200 200" version="1.1" xmlns="http://www.w3.org/2000/svg" xmlns:xlink="http://www.w3.org/1999/xlink" xml:space="preserve" xmlns:serif="http://www.serif.com/" style="fill-rule:evenodd;clip-rule:evenodd;stroke-linejoin:round;stroke-miterlimit:2;" fill="#2D1862">
    <g id="AI" transform="matrix(1.97719,0,0,1.97719,53.536,54.5246)">
        <path d="M39.362,13.339C39.362,12.969 39.465,12.81 39.878,12.81L46.123,12.81C46.484,12.81 46.639,12.916 46.639,13.339L46.639,45.471C46.639,45.841 46.536,46 46.123,46L39.93,46C39.517,46 39.414,45.788 39.414,45.471L39.362,13.339ZM38.949,4.129C38.949,1.535 40.755,0 42.975,0C45.4,0 47,1.694 47,4.129C47,6.829 45.297,8.258 42.871,8.258C40.549,8.311 38.949,6.829 38.949,4.129ZM21.041,26.732C19.958,22.232 17.326,12.387 16.294,7.623L16.19,7.623C15.365,12.387 13.249,20.433 11.546,26.732L21.041,26.732ZM9.997,33.349L6.849,45.577C6.746,45.947 6.643,46 6.23,46L0.45,46C0.037,46 -0.066,45.894 0.037,45.365L11.339,4.87C11.546,4.182 11.701,3.494 11.752,1.482C11.752,1.165 11.855,1.059 12.113,1.059L20.422,1.059C20.732,1.059 20.835,1.165 20.938,1.482L33.582,45.418C33.685,45.788 33.582,45.947 33.221,45.947L26.615,45.947C26.254,45.947 26.099,45.841 25.996,45.577L22.693,33.349C22.745,33.402 9.997,33.349 9.997,33.349Z" style="fill-rule:nonzero;"/>
    </g>
</svg>
