<svg width="100%" height="100%" viewBox="0 0 200 200" version="1.1" xmlns="http://www.w3.org/2000/svg" xmlns:xlink="http://www.w3.org/1999/xlink" xml:space="preserve" xmlns:serif="http://www.serif.com/" style="fill-rule:evenodd;clip-rule:evenodd;stroke-linejoin:round;stroke-miterlimit:2;" fill="#2D1862">
    <path d="M100,100C100,91.588 106.922,84.667 115.333,84.667C123.745,84.667 130.667,91.588 130.667,100C130.667,108.412 123.745,115.333 115.333,115.333C106.922,115.333 100,108.412 100,100ZM100,130.667C100,139.078 93.078,146 84.667,146C76.255,146 69.333,139.078 69.333,130.667C69.333,122.255 76.255,115.333 84.667,115.333L84.568,115.333C76.201,115.279 69.333,108.379 69.333,100C69.333,91.588 76.255,84.667 84.667,84.667L84.568,84.666C76.201,84.613 69.333,77.712 69.333,69.333C69.333,60.922 76.255,54 84.667,54L115.333,54C123.745,54 130.667,60.922 130.667,69.333C130.667,77.745 123.745,84.667 115.333,84.667L100,84.667L100,130.667Z" style="fill-rule:nonzero;"/>
</svg>
