<svg width="100%" height="100%" viewBox="0 0 200 200" version="1.1" xmlns="http://www.w3.org/2000/svg" xmlns:xlink="http://www.w3.org/1999/xlink" xml:space="preserve" xmlns:serif="http://www.serif.com/" style="fill-rule:evenodd;clip-rule:evenodd;stroke-linejoin:round;stroke-miterlimit:2;" fill="#2D1862">
    <g transform="matrix(0.566154,0,0,0.566154,43.4012,43.3846)">
        <path d="M28.32,18.75L41.211,164.57L99.961,181.25L158.477,164.57L171.621,18.75L28.32,18.75ZM147.637,155.586L99.961,169.18L52.07,155.586L40.996,30.352L158.926,30.352L147.637,155.586Z" style="fill-rule:nonzero;"/>
    </g>
    <g transform="matrix(0.566154,0,0,0.566154,43.4012,43.3846)">
        <path d="M54.883,48.633L55.215,53.379L59.648,102.891L99.98,102.891L99.98,102.871L122.031,102.871L119.805,126.016L99.805,131.426L99.805,131.465L99.648,131.465L79.648,126.055L78.379,111.758L60.605,111.758L62.812,140.02L99.648,150.176L99.98,150.176L99.98,150.098L136.641,140L136.973,136.816L141.113,89.512L141.738,84.766L99.805,84.766L99.805,84.805L76.152,84.805L74.551,66.406L143.32,66.406L143.652,62.598L144.59,53.379L144.922,48.633L54.883,48.633Z" style="fill-rule:nonzero;"/>
    </g>
</svg>
