<?xml version="1.0" encoding="UTF-8" standalone="no"?>
<!DOCTYPE svg PUBLIC "-//W3C//DTD SVG 1.1//EN" "http://www.w3.org/Graphics/SVG/1.1/DTD/svg11.dtd">
<svg width="100%" height="100%" viewBox="0 0 200 200" version="1.1" xmlns="http://www.w3.org/2000/svg" xmlns:xlink="http://www.w3.org/1999/xlink" xml:space="preserve" xmlns:serif="http://www.serif.com/" style="fill-rule:evenodd;clip-rule:evenodd;stroke-linejoin:round;stroke-miterlimit:2;">
    <g transform="matrix(0.525388,0,0,0.525388,47.0493,47.4366)">
        <path d="M105.543,145.014C86.797,134.892 65.363,135.306 57.466,136.359C52.462,137.025 52.43,140.438 52.43,140.438L55.76,163.085C55.76,163.085 55.473,159.709 61.385,159.582C67.875,159.443 79.41,162.755 92.386,166.121C120.117,173.314 135.125,187.601 135.125,187.601L131.493,170.022C131.493,170.022 126.503,156.331 105.543,145.014ZM158.791,113.8C153.153,107.038 136.044,89.745 108.872,83.749C77.886,76.911 53.427,84.701 43.5,88.595C39.299,90.243 38.709,93.206 38.709,93.206L35.993,115.937C35.993,115.937 37.016,113.041 43.592,111.604C50.093,110.185 74.366,101.736 106.698,109.268C132.298,115.233 145.244,122.192 155.707,127.781C161.993,131.138 162.926,135.84 162.926,135.84L161.029,118.565C161.029,118.565 161.24,116.737 158.791,113.8ZM185.032,78.082C187.71,80.833 188.945,84.303 188.945,84.303L184.444,52.406C184.444,52.406 183.874,49.569 180.93,46.715C171.516,37.589 145.108,13.05 98.464,12.503C57.059,12.018 33.498,28.845 24.252,37.884C20.229,41.817 18.749,47.322 18.749,47.322L12.623,79.64C12.623,79.64 48.584,50.209 96.254,49.901C143.58,49.595 177.745,70.595 185.032,78.082ZM157.644,131.827C154.511,128.76 150.791,127.818 150.791,127.818C150.791,127.818 144.386,133.022 131.16,138.591C117.934,144.16 109.021,144.14 109.021,144.14C109.021,144.14 115.368,147.394 120.601,151.538C125.834,155.682 129.489,160.625 129.489,160.625C129.489,160.625 138.274,158.538 149.214,151.238C162.144,141.727 162.144,138.36 162.144,138.36C162.144,138.36 161.777,135.694 157.644,131.827ZM57.446,163.76C57.446,163.76 56.335,165.893 63.132,166.572C79.554,168.214 89.489,166.951 89.489,166.951C89.489,166.951 82.23,165.299 67.979,162.338C58.024,161.004 57.446,163.76 57.446,163.76ZM164.386,68.62C164.386,68.62 155.911,72.895 143.978,77.162C132.044,81.428 121.139,84.589 121.139,84.589C121.139,84.589 130.667,86.784 141,93.45C151.333,100.117 159.077,108.235 159.077,108.235C159.077,108.235 171.434,103.097 180.038,96.329C185.577,91.828 186.11,88.428 186.11,88.428C186.11,88.428 187.495,85.666 182.31,80.362C176.51,74.429 164.386,68.62 164.386,68.62ZM80.379,124.645C111.49,124.294 127.251,118.992 127.251,118.992C127.251,118.992 101.09,109.805 79.49,110.783C54.634,111.909 42.958,114.428 42.958,117.689C42.958,122.608 49.269,124.996 80.379,124.645Z" style="fill:rgb(48,23,102);fill-rule:nonzero;"/>
    </g>
</svg>
