<svg width="100%" height="100%" viewBox="0 0 200 200" version="1.1" xmlns="http://www.w3.org/2000/svg" xmlns:xlink="http://www.w3.org/1999/xlink" xml:space="preserve" xmlns:serif="http://www.serif.com/" style="fill-rule:evenodd;clip-rule:evenodd;stroke-linejoin:round;stroke-miterlimit:2;" fill="#2D1862">
    <g transform="matrix(0.623121,0,0,0.623121,37.6879,37.6879)">
        <path d="M105.075,27.25L159.242,51.308C163.749,53.311 166.667,57.801 166.667,62.733L166.667,137.267C166.667,142.199 163.749,146.689 159.242,148.692L105.075,172.746C101.846,174.181 98.154,174.181 94.925,172.746L40.758,148.692C36.251,146.689 33.333,142.199 33.333,137.267L33.333,62.733C33.333,57.801 36.251,53.311 40.758,51.308L94.925,27.254C98.154,25.819 101.846,25.819 105.075,27.254L105.075,27.25ZM45.833,74.5L45.833,137.267L94.792,159.008L94.792,95.479L45.833,74.5ZM154.167,74.95L107.292,95.033L107.292,158.083L154.167,137.267L154.167,74.95ZM100,38.679L47.933,61.8L100.529,84.342L152.583,62.029L100,38.679Z" style="fill-rule:nonzero;"/>
    </g>
</svg>
