<svg width="100%" height="100%" viewBox="0 0 200 200" version="1.1" xmlns="http://www.w3.org/2000/svg" xmlns:xlink="http://www.w3.org/1999/xlink" xml:space="preserve" xmlns:serif="http://www.serif.com/" style="fill-rule:evenodd;clip-rule:evenodd;stroke-linejoin:round;stroke-miterlimit:2;" fill="#2D1862">
    <g transform="matrix(0.613333,0,0,0.613333,38.6667,38.6667)">
        <path d="M129.167,25C136.024,25 141.667,30.643 141.667,37.5L141.667,162.5C141.667,169.357 136.024,175 129.167,175L70.833,175C63.976,175 58.333,169.357 58.333,162.5L58.333,37.5C58.333,30.643 63.976,25 70.833,25L129.167,25ZM41.667,45.833C46.238,45.833 50,49.595 50,54.167L50,154.167C50,158.738 46.238,162.5 41.667,162.5L25,162.5L25,45.833L41.667,45.833ZM175,45.833L175,162.5L158.333,162.5C153.762,162.5 150,158.738 150,154.167L150,54.167C150,49.595 153.762,45.833 158.333,45.833L175,45.833Z" style="fill-rule:nonzero;"/>
    </g>
</svg>
