<svg width="100%" height="100%" viewBox="0 0 200 200" version="1.1" xmlns="http://www.w3.org/2000/svg" xmlns:xlink="http://www.w3.org/1999/xlink" xml:space="preserve" xmlns:serif="http://www.serif.com/" style="fill-rule:evenodd;clip-rule:evenodd;stroke-linejoin:round;stroke-miterlimit:2;" fill="#2D1862">
    <g id="PR" transform="matrix(2.19048,0,0,2.19048,40.8571,54)">
        <path d="M0,40.385L0,0.323C0,0 0,0 0.319,0L12.11,0C15.297,0 17.846,0.323 20.077,1.292C21.989,1.938 23.901,2.908 25.176,4.523C26.451,5.815 27.407,7.431 28.044,9.046C28.681,10.662 29,12.277 29,14.215C29,17.446 28.363,20.354 26.769,22.615C25.176,24.877 22.945,26.492 20.714,27.462C18.165,28.431 15.297,28.754 12.11,28.754L8.604,28.754L8.604,41.354C8.604,41.677 8.604,42 8.286,42L0.637,42C0.319,41.031 0,40.708 0,40.385ZM8,7.126L8,20L11.667,20C13.333,20 14.667,19.678 16.333,19.356C17.667,19.034 18.667,18.391 19.667,17.425C20.667,16.46 21,15.172 21,13.563C21,12.276 20.667,11.31 20,10.023C19.333,9.057 18.333,8.092 17.333,7.77C16,7.126 14.333,6.804 12.667,7.126L8,7.126ZM34.251,9.66L41.28,9.66C41.615,9.66 41.95,9.99 42.285,10.32C42.285,10.649 42.619,10.979 42.619,11.309C42.619,11.639 42.619,12.299 42.954,12.629L42.954,13.948C44.293,12.629 45.632,11.309 47.305,10.649C49.314,9.66 51.322,9 53.331,9C53.665,9 54,9 54,9.33L54,17.247C54,17.577 53.665,17.577 53.331,17.577C51.992,17.577 50.318,17.577 48.979,17.907C47.975,18.237 46.636,18.567 45.632,18.897C44.962,19.227 44.293,19.887 43.623,20.216L43.623,40.34C43.623,40.67 43.623,41 42.954,41L34.921,41C34.586,41 34.251,41 34.251,40.67L34.251,9.99C33.916,9.99 33.916,9.66 34.251,9.66Z" style="fill-rule:nonzero;"/>
    </g>
</svg>
