<svg width="100%" height="100%" viewBox="0 0 200 200" version="1.1" xmlns="http://www.w3.org/2000/svg" xmlns:xlink="http://www.w3.org/1999/xlink" xml:space="preserve" xmlns:serif="http://www.serif.com/" style="fill-rule:evenodd;clip-rule:evenodd;stroke-linejoin:round;stroke-miterlimit:2;" fill="#2D1862">
    <g id="PS" transform="matrix(2.09091,0,0,2.09091,47.7273,54)">
        <path d="M41.164,16.887C38.042,16.887 36.984,18.46 36.984,19.771C36.984,21.187 37.672,22.184 41.905,24.334C48.095,27.271 50,30.155 50,34.35C50,40.644 45.185,44 38.624,44C35.185,44 32.222,43.318 30.529,42.322C30.265,42.217 30.212,42.007 30.212,41.692L30.212,35.924C30.212,35.504 30.423,35.399 30.688,35.609C33.175,37.235 36.032,37.917 38.624,37.917C41.746,37.917 43.069,36.605 43.069,34.875C43.069,33.459 42.169,32.2 38.148,30.155C32.54,27.48 30.212,24.806 30.212,20.243C30.212,15.209 34.233,10.961 41.164,10.961C44.55,10.961 46.931,11.485 48.254,12.062C48.571,12.272 48.677,12.586 48.677,12.849L48.677,18.25C48.677,18.565 48.466,18.775 48.095,18.67C46.296,17.569 43.704,16.887 41.164,16.887ZM7.09,21.554C7.989,21.607 8.73,21.607 10.265,21.607C14.868,21.607 19.259,19.981 19.259,13.74C19.259,8.758 16.138,6.241 10.847,6.241C9.259,6.241 7.778,6.293 7.037,6.346L7.09,21.554ZM0.053,0.682C0.053,0.42 0.582,0.21 0.952,0.21C3.492,0.105 7.249,0 11.164,0C22.116,0 26.402,5.979 26.402,13.583C26.402,23.547 19.101,27.847 10.159,27.847C8.624,27.847 8.095,27.795 7.037,27.795L7.037,42.846C7.037,43.161 6.931,43.318 6.561,43.318L0.476,43.318C0.159,43.318 0,43.213 0,42.846L0.053,0.682Z" style="fill-rule:nonzero;"/>
    </g>
</svg>
