<svg width="100%" height="100%" viewBox="0 0 200 200" version="1.1" xmlns="http://www.w3.org/2000/svg" xmlns:xlink="http://www.w3.org/1999/xlink" xml:space="preserve" xmlns:serif="http://www.serif.com/" style="fill-rule:evenodd;clip-rule:evenodd;stroke-linejoin:round;stroke-miterlimit:2;" fill="#2D1862">
    <g transform="matrix(0.560171,0,0,0.560171,43.9829,43.9755)">
        <path d="M59.021,182.086L59.021,179.541C59.039,158.081 59.039,136.621 59.058,115.161C59.094,83.649 59.149,52.136 59.186,20.624C59.186,18.005 59.186,18.005 61.841,18.005C98.151,17.987 134.46,18.024 170.77,17.896C177.161,17.877 182.141,22.491 182.123,29.285C181.94,76.691 182.013,124.078 182.013,171.484C182.013,177.948 177.911,182.068 171.466,182.086C134.772,182.104 98.059,182.104 61.365,182.104C60.706,182.086 60.065,182.086 59.021,182.086ZM119.336,168.225C114.099,159.491 109.045,151.086 103.992,142.664C105.365,142.169 106.61,141.803 107.8,141.29C119.556,136.273 118.878,122.137 113.348,116.333C109.723,112.543 105.164,110.767 100.146,110.51C92.584,110.126 84.985,110.272 77.405,110.089C75.702,110.052 75.391,110.693 75.391,112.231C75.446,130.194 75.427,148.157 75.427,166.119C75.427,166.742 75.5,167.383 75.537,168.06L86.066,168.06L86.066,143.707C87.952,143.707 89.636,143.817 91.302,143.671C92.822,143.524 93.61,144.128 94.305,145.447C98.132,152.588 102.032,159.674 105.951,166.76C106.262,167.328 106.866,168.115 107.343,168.134C111.188,168.28 115.051,168.225 119.336,168.225ZM133.508,144.385C136.584,144.385 139.368,144.458 142.151,144.366C147.04,144.202 151.782,143.469 156.213,141.125C166.577,135.632 166.156,118.842 157.184,113.568C154.034,111.719 150.647,110.62 147.058,110.492C139.807,110.236 132.538,110.291 125.287,110.107C123.456,110.052 122.852,110.529 122.852,112.451C122.925,130.286 122.906,148.102 122.906,165.936C122.906,166.632 122.961,167.328 122.998,168.097L133.49,168.097C133.508,160.187 133.508,152.423 133.508,144.385ZM48.328,17.95L48.328,182.013C47.668,182.05 47.046,182.123 46.423,182.123C40.399,182.123 34.357,182.141 28.333,182.123C22.034,182.104 17.877,177.93 17.877,171.594C17.896,123.932 17.914,76.27 17.95,28.589C17.95,22.217 22.198,17.987 28.552,17.969C34.448,17.95 40.363,17.95 46.259,17.95L48.328,17.95Z" style="fill-rule:nonzero;"/>
    </g>
    <g transform="matrix(0.560171,0,0,0.560171,43.9829,43.9755)">
        <path d="M86.066,134.753L86.066,119.08C91.321,119.373 96.558,118.365 101.648,120.105C104.852,121.204 106.482,123.529 106.537,126.624C106.592,130.176 105.09,132.556 101.813,133.875C100.806,134.277 99.707,134.68 98.645,134.717C94.525,134.808 90.405,134.753 86.066,134.753ZM133.6,135.742L133.6,118.933C138.141,119.189 142.609,119.153 146.967,119.775C151.031,120.361 153.137,123.108 153.21,126.77C153.302,130.798 151.453,133.728 147.333,134.497C142.902,135.303 138.306,135.339 133.6,135.742Z" style="fill-rule:nonzero;"/>
    </g>
</svg>
