<svg width="100%" height="100%" viewBox="0 0 200 200" version="1.1" xmlns="http://www.w3.org/2000/svg" xmlns:xlink="http://www.w3.org/1999/xlink" xml:space="preserve" xmlns:serif="http://www.serif.com/" style="fill-rule:evenodd;clip-rule:evenodd;stroke-linejoin:round;stroke-miterlimit:2;" fill="#2D1862">
    <g transform="matrix(0.648815,0,0,0.648815,35.1185,35.1185)">
        <path d="M180.781,79.121L141.133,29.57C140.898,29.277 140.527,29.102 140.156,29.102L59.844,29.102C59.473,29.102 59.102,29.277 58.867,29.57L19.219,79.121C18.848,79.59 18.848,80.273 19.258,80.742L99.063,170.488C99.297,170.762 99.648,170.898 100,170.898C100.352,170.898 100.684,170.742 100.937,170.488L180.742,80.742C181.152,80.273 181.152,79.59 180.781,79.121ZM126.016,40.313L132.734,66.465L106.855,40.313L126.016,40.313ZM127.617,75.176L72.383,75.176L100,47.266L127.617,75.176ZM73.984,40.313L93.145,40.313L67.246,66.465L73.984,40.313ZM63.555,41.68L54.941,75.176L36.758,75.176L63.555,41.68ZM38.008,84.941L56.445,84.941L81.016,133.32L38.008,84.941ZM100,149.102L67.402,84.941L132.578,84.941L100,149.102ZM118.965,133.32L143.555,84.941L161.992,84.941L118.965,133.32ZM145.059,75.176L136.445,41.68L163.242,75.176L145.059,75.176Z" style="fill-rule:nonzero;"/>
    </g>
</svg>
