<?xml version="1.0" encoding="UTF-8" standalone="no"?>
<!DOCTYPE svg PUBLIC "-//W3C//DTD SVG 1.1//EN" "http://www.w3.org/Graphics/SVG/1.1/DTD/svg11.dtd">
<svg width="100%" height="100%" viewBox="0 0 200 200" version="1.1" xmlns="http://www.w3.org/2000/svg" xmlns:xlink="http://www.w3.org/1999/xlink" xml:space="preserve" xmlns:serif="http://www.serif.com/" style="fill-rule:evenodd;clip-rule:evenodd;stroke-linejoin:round;stroke-miterlimit:2;">
    <g transform="matrix(0.538537,0,0,0.538537,46.1463,46.1463)">
        <path d="M145.833,185.417L54.167,185.417C46.25,185.417 39.583,178.75 39.583,170.833L39.583,29.167C39.583,21.25 46.25,14.583 54.167,14.583L145.833,14.583C153.75,14.583 160.417,21.25 160.417,29.167L160.417,170.833C160.417,178.75 153.75,185.417 145.833,185.417ZM54.167,27.083C52.917,27.083 52.083,27.917 52.083,29.167L52.083,170.833C52.083,172.083 52.917,172.917 54.167,172.917L145.833,172.917C147.083,172.917 147.917,172.083 147.917,170.833L147.917,29.167C147.917,27.917 147.083,27.083 145.833,27.083L54.167,27.083Z" style="fill:rgb(48,23,102);fill-rule:nonzero;"/>
    </g>
    <g transform="matrix(0.538537,0,0,0.538537,46.1463,46.1463)">
        <path d="M91.667,150C91.667,154.572 95.428,158.333 100,158.333C104.572,158.333 108.333,154.572 108.333,150C108.333,145.428 104.572,141.667 100,141.667C95.428,141.667 91.667,145.428 91.667,150Z" style="fill:rgb(48,23,102);fill-rule:nonzero;"/>
    </g>
    <g transform="matrix(0.538537,0,0,0.538537,46.1463,46.1463)">
        <path d="M116.667,47.917L83.333,47.917C80,47.917 77.083,45 77.083,41.667C77.083,38.333 80,35.417 83.333,35.417L116.667,35.417C120,35.417 122.917,38.333 122.917,41.667C122.917,45 120,47.917 116.667,47.917Z" style="fill:rgb(48,23,102);fill-rule:nonzero;"/>
    </g>
</svg>
