<svg width="100%" height="100%" viewBox="0 0 200 200" version="1.1" xmlns="http://www.w3.org/2000/svg" xmlns:xlink="http://www.w3.org/1999/xlink" xml:space="preserve" xmlns:serif="http://www.serif.com/" style="fill-rule:evenodd;clip-rule:evenodd;stroke-linejoin:round;stroke-miterlimit:2;" fill="#2D1862">
    <g transform="matrix(1,0,0,1,1.58067,4.49977)">
        <path d="M79.083,93.75L102.417,138.583C102.833,139.25 102.583,139.917 101.917,139.917L87.417,139.917C86.5,139.917 86.083,139.667 85.667,138.833C80.333,127.833 74.917,116.833 69.333,105L69.167,105C64.167,116.167 58.667,127.917 53.333,138.917C52.917,139.583 52.5,139.833 51.833,139.833L38.083,139.833C37.25,139.833 37.167,139.167 37.583,138.667L60.417,95.167L38.333,51.167C37.833,50.5 38.333,50 38.833,50L53.167,50C54,50 54.333,50.167 54.667,50.917C59.917,61.917 65.25,73.25 70.25,84.333L70.417,84.333C75.25,73.333 80.583,61.917 85.75,51C86.167,50.333 86.417,49.917 87.25,49.917L100.667,49.917C101.333,49.917 101.583,50.417 101.167,51.083L79.083,93.75ZM106.5,107.333C106.5,87.917 119.417,72.75 139.917,72.75C141.667,72.75 142.583,72.75 144.25,72.917L144.25,50.833C144.25,50.333 144.667,50 145.083,50L158.25,50C158.917,50 159.083,50.25 159.083,50.667L159.083,127.167C159.083,129.417 159.083,132.25 159.5,135.333C159.5,135.833 159.333,136 158.833,136.25C151.833,139.583 144.5,141.083 137.5,141.083C119.417,141.167 106.5,130 106.5,107.333ZM144.25,86C143.083,85.5 141.417,85.167 139.417,85.167C128.917,85.167 121.583,93.25 121.583,106.667C121.583,122 129.083,128.167 138.5,128.167C140.5,128.167 142.667,127.917 144.25,127.25L144.25,86Z" style="fill-rule:nonzero;"/>
    </g>
</svg>
